# xmcd CD database file generated by LOLA_Freedb v0.9beta0
# 
# Track frame offsets:
#      150
#      25295
#      47853
#      81778
#      101705
#      127878
#      148493
#      178850
#      192540
#      232313
#      257423
#      285448
#      317210
# 
# Disc length: 4581 seconds
# 
# Revision: 2 
# Processed by: cddbd v1.5.1PL2 Copyright (c) Steve Scherf et al.
# Submitted via: LOLA_Freedb v0.9beta0
# 
DISCID=c511e30d
DTITLE=Gary Moore - Blues Alive
DYEAR=1900
DGENRE=
TTITLE0=Gary Moore - Cold Day In Hell
TTITLE1=Gary Moore - Walking By Myself
TTITLE2=Gary Moore - Story Of The Blues
TTITLE3=Gary Moore - Oh Pretty Woman
TTITLE4=Gary Moore - Separate Ways
TTITLE5=Gary Moore - Too Tired
TTITLE6=Gary Moore - Still Got The Blues
TTITLE7=Gary Moore - Since I Met You Baby
TTITLE8=Gary Moore - The Sky Is Crying
TTITLE9=Gary Moore - Further On Up The Road
TTITLE10=Gary Moore - King Of The Blues
TTITLE11=Gary Moore - Parisienne Walkways
TTITLE12=Gary Moore - Jumpin' At Shadows
EXTD=
EXTT0=
EXTT1=
EXTT2=
EXTT3=
EXTT4=
EXTT5=
EXTT6=
EXTT7=
EXTT8=
EXTT9=
EXTT10=
EXTT11=
EXTT12=
PLAYORDER=
